#!OML:ASF E:\id_vita\Project 1\Capture day 1\Session 1\Male1.ASF
:FULLY-SPECIFIED
:DEGREES
785
root 8.22481 13.6108 -8.69712 36.3339 77.2944 -4.46629
lowerback 30.7886 0.694636 -4.28882
upperback 7.59096 0.159268 0.139439
thorax -8.28822 0.351724 2.55132
lowerneck -10.2012 2.20922 -0.563982
upperneck 5.24086 2.77489 3.79372
head 3.45567 1.54529 1.52742
rclavicle 5.1684e-015 -1.47101e-014
rhumerus 68.3096 23.1894 -37.823
rradius 26.2672
rwrist 13.0678
rhand -47.6646 85.0042
rfingers 7.12502
rthumb -20.3461 56.05
lclavicle 5.1684e-015 -1.47101e-014
lhumerus 58.5961 0.0594537 77.8811
lradius 12.9177
lwrist -50.2442
lhand -38.3633 81.0531
lfingers 7.12502
lthumb -11.3896 -110.724
rfemur -50.9284 6.85301 21.8374
rtibia 69.378
rfoot -46.8218 -27.1701
rtoes -9.23729
lfemur -44.4835 6.60806 -22.272
ltibia 90.5564
lfoot -13.7264 1.54088
ltoes 31.767
786
root 8.32703 13.6327 -8.67696 35.5961 77.1113 -5.12019
lowerback 30.799 0.924504 -4.61213
upperback 7.62273 0.364963 0.279218
thorax -8.2702 0.450608 2.82163
lowerneck -10.2389 2.15093 -0.631444
upperneck 5.263 2.7116 3.67672
head 3.47275 1.50678 1.49791
rclavicle 7.55382e-015 -5.86415e-015
rhumerus 68.4365 23.3334 -37.3404
rradius 26.0789
rwrist 12.9694
rhand -47.6808 84.7208
rfingers 7.12502
rthumb -20.3616 55.7683
lclavicle 7.55382e-015 -5.86415e-015
lhumerus 58.4943 -0.0342624 77.9587
lradius 12.7439
lwrist -50.3653
lhand -38.5476 80.7941
lfingers 7.12502
lthumb -11.5674 -110.455
rfemur -49.9616 7.33706 21.8333
rtibia 68.5687
rfoot -47.0499 -26.992
rtoes -8.7461
lfemur -46.2659 6.95914 -22.0855
ltibia 92.1055
lfoot -14.9871 1.77659
ltoes 33.2023
787
root 8.42097 13.6492 -8.67982 35.13 76.8341 -5.67377
lowerback 30.6503 1.0412 -4.66872
upperback 7.67173 0.495488 0.227354
thorax -8.15371 0.507582 2.74842
lowerneck -10.0994 2.13502 -0.37299
upperneck 4.92836 2.69048 3.32159
head 3.3356 1.48275 1.3227
rclavicle 2.14687e-014 6.49032e-014
rhumerus 68.6328 23.3903 -36.7382
rradius 25.9474
rwrist 12.9168
rhand -47.6108 84.3906
rfingers 7.12502
rthumb -20.2944 55.4308
lclavicle 2.14687e-014 6.49032e-014
lhumerus 58.4929 0.22434 78.6749
lradius 12.6797
lwrist -51.3306
lhand -38.5446 80.5212
lfingers 7.12502
lthumb -11.5645 -110.182
rfemur -49.2965 7.64502 21.7045
rtibia 67.8123
rfoot -46.9717 -26.8635
rtoes -8.96088
lfemur -48.3298 7.23839 -22.152
ltibia 93.597
lfoot -16.1435 2.10387
ltoes 31.738
788
root 8.52882 13.6719 -8.68308 36.0553 76.9541 -4.491
lowerback 30.8657 0.854309 -4.60092
upperback 7.73406 0.271998 0.0984621
thorax -8.16617 0.407047 2.64444
lowerneck -10.1491 2.16652 -0.22887
upperneck 4.95781 2.71704 3.26242
head 3.35722 1.49711 1.28065
rclavicle 1.59028e-015 -2.88238e-014
rhumerus 68.8023 23.6704 -36.3981
rradius 25.8305
rwrist 12.6846
rhand -47.513 84.363
rfingers 7.12502
rthumb -20.2004 55.3933
lclavicle 1.59028e-015 -2.88238e-014
lhumerus 58.2828 0.156359 78.3869
lradius 12.7679
lwrist -51.0923
lhand -38.6354 80.6418
lfingers 7.12502
lthumb -11.652 -110.298
rfemur -48.1262 7.3853 21.5238
rtibia 66.961
rfoot -46.9539 -26.9969
rtoes -8.87454
lfemur -49.9038 6.88569 -22.2745
ltibia 94.7929
lfoot -17.4057 2.52754
ltoes 30.925
789
root 8.62415 13.6851 -8.69118 35.1816 76.5882 -5.48647
lowerback 30.7245 0.928147 -4.62423
upperback 7.73746 0.347625 -0.00544982
thorax -8.10106 0.438463 2.51329
lowerneck -10.306 2.14757 -0.467084
upperneck 5.13764 2.69072 3.66448
head 3.44455 1.50003 1.4622
rclavicle -5.96354e-015 -2.0276e-014
rhumerus 68.8273 23.7845 -36.6618
rradius 25.6395
rwrist 12.9242
rhand -47.5774 84.6773
rfingers 7.12502
rthumb -20.2623 55.7142
lclavicle -5.96354e-015 -2.0276e-014
lhumerus 58.1361 -0.00574504 77.839
lradius 12.7907
lwrist -50.4155
lhand -38.7906 80.6896
lfingers 7.12502
lthumb -11.8017 -110.337
rfemur -47.5234 7.7316 21.4414
rtibia 66.179
rfoot -46.7148 -27.239
rtoes -8.66063
lfemur -51.9495 7.15044 -22.3371
ltibia 95.9646
lfoot -18.8598 3.03221
ltoes 30.0019
790
root 8.72839 13.7079 -8.67306 33.9217 76.4398 -6.39187
lowerback 31.1617 1.063 -4.78783
upperback 7.83919 0.463508 0.0282932
thorax -8.19854 0.499434 2.60269
lowerneck -10.2218 2.1209 -0.817416
upperneck 4.94431 2.68488 4.02661
head 3.35389 1.50462 1.63951
rclavicle -3.22031e-014 -4.33351e-014
rhumerus 68.8309 23.781 -36.8721
rradius 25.4763
rwrist 13.4296
rhand -47.6002 84.7979
rfingers 7.12502
rthumb -20.2842 55.8371
lclavicle -3.22031e-014 -4.33351e-014
lhumerus 58.1156 0.613834 79.0118
lradius 12.6555
lwrist -51.7113
lhand -38.6366 80.2465
lfingers 7.12502
lthumb -11.6532 -109.902
rfemur -46.1942 8.18648 21.6254
rtibia 65.2981
rfoot -46.5557 -27.4589
rtoes -8.14255
lfemur -53.2181 7.47902 -22.1107
ltibia 96.8341
lfoot -20.5657 3.30128
ltoes 28.788
791
root 8.81613 13.7241 -8.68328 34.8517 76.5331 -5.69787
lowerback 31.0233 0.869949 -4.61873
upperback 7.81287 0.265979 -0.0855516
thorax -8.1493 0.404381 2.44886
lowerneck -10.1276 2.15466 -0.916999
upperneck 4.63375 2.74884 4.1298
head 3.22398 1.53682 1.6866
rclavicle -2.78299e-014 1.72943e-014
rhumerus 69.0064 23.9347 -36.5057
rradius 25.4336
rwrist 13.5223
rhand -47.547 84.6965
rfingers 7.12502
rthumb -20.233 55.7303
lclavicle -2.78299e-014 1.72943e-014
lhumerus 58.028 0.734488 79.0762
lradius 12.7439
lwrist -51.8605
lhand -38.3895 79.8827
lfingers 7.12502
lthumb -11.4149 -109.552
rfemur -45.8225 7.98622 21.4769
rtibia 64.5447
rfoot -46.3115 -27.353
rtoes -7.06405
lfemur -55.6549 7.09078 -22.2792
ltibia 97.7612
lfoot -21.9351 3.57821
ltoes 28.2266
792
root 8.91851 13.754 -8.65891 33.8855 76.1865 -6.48381
lowerback 31.2006 1.09067 -5.02052
upperback 7.92367 0.418846 -0.127596
thorax -8.11365 0.480571 2.57741
lowerneck -10.0478 2.15207 -1.00493
upperneck 4.45582 2.75094 4.35218
head 3.14428 1.54469 1.77092
rclavicle 2.98177e-014 -7.35503e-015
rhumerus 69.104 24.0346 -36.3629
rradius 25.4141
rwrist 13.389
rhand -47.5155 84.9197
rfingers 7.12502
rthumb -20.2028 55.9503
lclavicle 2.98177e-014 -7.35503e-015
lhumerus 57.9162 0.498253 78.436
lradius 12.9183
lwrist -51.3207
lhand -38.3469 80.2135
lfingers 7.12502
lthumb -11.3739 -109.885
rfemur -44.7215 8.52693 21.54
rtibia 63.6398
rfoot -46.391 -27.1144
rtoes -5.8037
lfemur -57.2496 7.51957 -22.0708
ltibia 98.381
lfoot -23.3764 3.27182
ltoes 28.87
793
root 9.01155 13.769 -8.66366 33.2167 75.9167 -7.3349
lowerback 31.0491 1.12687 -5.01439
upperback 7.93335 0.461906 -0.203123
thorax -8.03457 0.496454 2.47339
lowerneck -10.197 2.13724 -1.07999
upperneck 4.71785 2.72083 4.51575
head 3.26275 1.53865 1.84695
rclavicle 1.47101e-014 6.97734e-014
rhumerus 69.3177 24.1929 -35.9914
rradius 25.5008
rwrist 12.7119
rhand -47.4141 85.2377
rfingers 7.12502
rthumb -20.1054 56.258
lclavicle 1.47101e-014 6.97734e-014
lhumerus 57.8182 0.860502 78.9191
lradius 12.8777
lwrist -52.1034
lhand -38.3123 80.6268
lfingers 7.12502
lthumb -11.3405 -110.3
rfemur -44.2231 8.8547 21.5185
rtibia 62.8767
rfoot -46.5884 -26.4572
rtoes -5.39832
lfemur -59.3803 7.66987 -22.0058
ltibia 98.9916
lfoot -24.596 3.45123
ltoes 28.069
794
root 9.11919 13.7901 -8.6597 32.9419 76.2093 -7.17789
lowerback 31.6016 0.957126 -4.84825
upperback 8.03748 0.293212 -0.210039
thorax -8.16193 0.425417 2.42974
lowerneck -10.3798 2.17119 -0.824557
upperneck 5.12514 2.72979 4.30784
head 3.44407 1.54323 1.74543
rclavicle -5.56597e-015 1.07344e-014
rhumerus 69.6814 24.4088 -35.1744
rradius 25.6616
rwrist 11.7868
rhand -47.3162 85.2027
rfingers 7.12502
rthumb -20.0112 56.2132
lclavicle -5.56597e-015 1.07344e-014
lhumerus 57.6885 0.80138 78.5858
lradius 12.8931
lwrist -51.9855
lhand -38.3882 80.9325
lfingers 7.12502
lthumb -11.4136 -110.602
rfemur -42.8013 8.65945 21.742
rtibia 61.9743
rfoot -46.73 -26.3604
rtoes -5.18026
lfemur -60.5734 7.30557 -21.7678
ltibia 99.305
lfoot -25.7901 3.79969
ltoes 26.7026
795
root 9.20456 13.7893 -8.65837 32.6172 75.6803 -8.06966
lowerback 30.895 1.16901 -5.11634
upperback 8.01036 0.488407 -0.286775
thorax -7.87473 0.505234 2.4293
lowerneck -10.2222 2.1521 -1.33614
upperneck 4.92679 2.7436 4.88471
head 3.33418 1.56305 2.02417
rclavicle 1.43125e-014 -3.93594e-014
rhumerus 69.9419 24.4617 -34.5498
rradius 25.7681
rwrist 11.3146
rhand -47.2788 85.2534
rfingers 7.12502
rthumb -19.9753 56.2601
lclavicle 1.43125e-014 -3.93594e-014
lhumerus 57.7228 0.787876 78.5858
lradius 12.8529
lwrist -52.0716
lhand -38.6924 81.2138
lfingers 7.12502
lthumb -11.707 -110.867
rfemur -42.7347 9.03245 21.6429
rtibia 61.1807
rfoot -46.2561 -26.6893
rtoes -5.83861
lfemur -63.1772 7.66183 -21.8913
ltibia 99.7506
lfoot -26.7014 4.02432
ltoes 26.0921
